<?xml version="1.0" standalone="no"?>
<!DOCTYPE svg PUBLIC "-//W3C//DTD SVG 20010904//EN"
 "http://www.w3.org/TR/2001/REC-SVG-20010904/DTD/svg10.dtd">
<svg version="1.0" xmlns="http://www.w3.org/2000/svg"
 width="411.000000pt" height="199.000000pt" viewBox="0 0 411.000000 199.000000"
 preserveAspectRatio="xMidYMid meet">
<metadata>
Created by potrace 1.15, written by Peter Selinger 2001-2017
</metadata>
<g transform="translate(0.000000,199.000000) scale(0.100000,-0.100000)"
fill="#000000" stroke="none">
<path d="M336 1821 c-5 -7 -56 -288 -56 -306 0 -3 -18 -5 -40 -5 l-40 0 0 -40
c0 -38 2 -40 30 -40 22 0 30 -5 30 -17 0 -10 -17 -119 -37 -243 l-37 -225 23
-85 c12 -47 31 -120 43 -162 l20 -78 418 0 417 0 267 -220 267 -220 424 0
c248 0 426 4 430 9 8 14 488 406 512 419 15 9 142 12 431 12 l410 0 20 78 c12
42 31 116 43 163 l23 85 -37 225 c-20 123 -37 232 -37 242 0 12 8 17 30 17 28
0 30 2 30 40 l0 40 -40 0 c-22 0 -40 2 -40 3 0 16 -52 303 -56 309 -3 4 -101
8 -219 8 l-213 0 -11 -30 -10 -30 -1271 0 -1271 0 -10 30 -11 30 -213 0 c-118
0 -216 -4 -219 -9z m3315 -213 c15 -35 20 -239 7 -270 -7 -17 -93 -18 -1598
-18 -1505 0 -1591 1 -1598 18 -13 31 -8 235 7 270 l13 32 1578 0 1578 0 13
-32z m-882 -765 c0 -5 -80 -111 -177 -238 l-178 -230 -350 -3 -351 -2 -180
232 -180 233 306 5 c523 9 1111 10 1110 3z"/>
</g>
</svg>
